<svg width="334.8" height="88.2" viewBox="0 0 558 147" fill="none" xmlns="http://www.w3.org/2000/svg">
<path d="M0.53 109L7.874 83.143V63.712L19.196 59.122L39.086 0.828997H78.713L103.346 69.373L115.127 91.099V109H88.046L80.396 84.52H35.873L29.294 109H0.53ZM45.971 60.958H71.981L60.353 25.921H57.14L45.971 60.958ZM125.769 146.179V62.794L122.709 45.964L127.452 36.631H150.249V43.21L151.779 43.975C151.779 43.975 152.697 43.21 154.533 41.68C156.369 40.15 158.868 38.671 162.03 37.243C165.294 35.713 169.068 34.948 173.352 34.948C182.43 34.948 189.519 37.855 194.619 43.669C199.821 49.483 202.422 58.663 202.422 71.209C202.422 80.593 201.096 88.192 198.444 94.006C195.894 99.718 192.426 103.849 188.04 106.399C183.654 108.949 178.758 110.224 173.352 110.224C166.008 110.224 160.806 109.663 157.746 108.541C154.788 107.317 153.309 106.705 153.309 106.705V146.179H125.769ZM160.347 89.263C164.223 89.263 167.334 87.886 169.68 85.132C172.128 82.378 173.352 78.196 173.352 72.586C173.352 67.078 172.383 63.049 170.445 60.499C168.507 57.949 165.651 56.674 161.877 56.674L153.309 59.887V87.274C153.309 87.274 153.819 87.631 154.839 88.345C155.961 88.957 157.797 89.263 160.347 89.263ZM215.417 146.179V62.794L212.357 45.964L217.1 36.631H239.897V43.21L241.427 43.975C241.427 43.975 242.345 43.21 244.181 41.68C246.017 40.15 248.516 38.671 251.678 37.243C254.942 35.713 258.716 34.948 263 34.948C272.078 34.948 279.167 37.855 284.267 43.669C289.469 49.483 292.07 58.663 292.07 71.209C292.07 80.593 290.744 88.192 288.092 94.006C285.542 99.718 282.074 103.849 277.688 106.399C273.302 108.949 268.406 110.224 263 110.224C255.656 110.224 250.454 109.663 247.394 108.541C244.436 107.317 242.957 106.705 242.957 106.705V146.179H215.417ZM249.995 89.263C253.871 89.263 256.982 87.886 259.328 85.132C261.776 82.378 263 78.196 263 72.586C263 67.078 262.031 63.049 260.093 60.499C258.155 57.949 255.299 56.674 251.525 56.674L242.957 59.887V87.274C242.957 87.274 243.467 87.631 244.487 88.345C245.609 88.957 247.445 89.263 249.995 89.263ZM340.256 110.53C332.402 110.53 325.415 109.357 319.295 107.011C313.175 104.665 308.381 100.738 304.913 95.23C301.445 89.722 299.711 82.276 299.711 72.892C299.711 66.16 300.833 60.397 303.077 55.603C305.423 50.809 308.534 46.933 312.41 43.975C316.286 40.915 320.621 38.722 325.415 37.396C330.209 35.968 335.156 35.254 340.256 35.254C349.028 35.254 355.76 36.121 360.452 37.855C365.246 39.589 368.408 40.966 369.938 41.986L377.588 66.313L374.528 75.799H327.098C327.812 79.573 329.699 82.735 332.759 85.285C335.819 87.835 340.868 89.11 347.906 89.11C353.414 89.11 358.157 88.498 362.135 87.274C366.113 86.05 369.224 84.979 371.468 84.061V104.563C368.408 106.195 363.971 107.623 358.157 108.847C352.445 109.969 346.478 110.53 340.256 110.53ZM327.251 66.007L348.365 62.947L346.988 56.368C346.274 55.96 345.203 55.654 343.775 55.45C342.449 55.246 341.276 55.144 340.256 55.144C337.4 55.144 335.003 55.756 333.065 56.98C331.229 58.204 329.801 59.683 328.781 61.417C327.863 63.049 327.353 64.579 327.251 66.007ZM314.705 26.38L331.382 4.96H346.835L363.359 26.38H350.966L339.185 17.506L326.945 26.38H314.705ZM390.381 109V62.947L387.321 46.117L392.064 36.784H414.861V43.363L416.238 44.281C417.36 43.261 418.89 42.088 420.828 40.762C422.868 39.334 425.316 38.059 428.172 36.937C431.028 35.815 434.241 35.254 437.811 35.254C446.991 35.254 453.876 37.855 458.466 43.057C463.056 48.259 465.351 55.552 465.351 64.936V84.367L468.564 99.667L465.351 109H437.811V68.914C437.811 65.038 436.944 62.08 435.21 60.04C433.578 57.898 430.977 56.827 427.407 56.827L417.921 59.734V109H390.381ZM507.032 110.53C502.238 110.53 497.597 109.306 493.109 106.858C488.723 104.41 485.102 100.534 482.246 95.23C479.39 89.926 477.962 82.99 477.962 74.422C477.962 64.936 479.339 57.337 482.093 51.625C484.949 45.913 488.621 41.782 493.109 39.232C497.597 36.58 502.238 35.254 507.032 35.254C514.274 35.254 519.374 35.866 522.332 37.09C525.392 38.314 526.922 38.926 526.922 38.926L525.392 10.009L526.922 0.828997H554.615V84.52L557.675 99.82L554.615 109.153H528.452V101.656L526.922 100.891C526.922 100.891 526.157 101.707 524.627 103.339C523.097 104.869 520.853 106.45 517.895 108.082C514.937 109.714 511.316 110.53 507.032 110.53ZM518.507 88.957L526.922 86.815V64.477C526.922 62.131 526.157 60.295 524.627 58.969C523.097 57.541 521.057 56.827 518.507 56.827C514.733 56.827 511.877 58.102 509.939 60.652C508.001 63.1 507.032 67.18 507.032 72.892C507.032 78.502 508.154 82.582 510.398 85.132C512.642 87.682 515.345 88.957 518.507 88.957Z" fill="#FF3D00"/>
</svg>
