<svg width="234" height="62" viewBox="0 0 234 62" fill="none" xmlns="http://www.w3.org/2000/svg">
<path d="M0.64 46L3.712 35.184V27.056L8.448 25.136L16.768 0.751999H33.344L43.648 29.424L48.576 38.512V46H37.248L34.048 35.76H15.424L12.672 46H0.64ZM19.648 25.904H30.528L25.664 11.248H24.32L19.648 25.904ZM53.0275 61.552V26.672L51.7475 19.632L53.7315 15.728H63.2675V18.48L63.9075 18.8C63.9075 18.8 64.2915 18.48 65.0595 17.84C65.8275 17.2 66.8728 16.5813 68.1955 15.984C69.5608 15.344 71.1395 15.024 72.9315 15.024C76.7288 15.024 79.6942 16.24 81.8275 18.672C84.0035 21.104 85.0915 24.944 85.0915 30.192C85.0915 34.1173 84.5368 37.296 83.4275 39.728C82.3608 42.1173 80.9102 43.8453 79.0755 44.912C77.2408 45.9787 75.1928 46.512 72.9315 46.512C69.8595 46.512 67.6835 46.2773 66.4035 45.808C65.1662 45.296 64.5475 45.04 64.5475 45.04V61.552H53.0275ZM67.4915 37.744C69.1128 37.744 70.4142 37.168 71.3955 36.016C72.4195 34.864 72.9315 33.1147 72.9315 30.768C72.9315 28.464 72.5262 26.7787 71.7155 25.712C70.9048 24.6453 69.7102 24.112 68.1315 24.112L64.5475 25.456V36.912C64.5475 36.912 64.7608 37.0613 65.1875 37.36C65.6568 37.616 66.4248 37.744 67.4915 37.744ZM90.5275 61.552V26.672L89.2475 19.632L91.2315 15.728H100.768V18.48L101.408 18.8C101.408 18.8 101.792 18.48 102.56 17.84C103.328 17.2 104.373 16.5813 105.696 15.984C107.061 15.344 108.64 15.024 110.432 15.024C114.229 15.024 117.194 16.24 119.328 18.672C121.504 21.104 122.592 24.944 122.592 30.192C122.592 34.1173 122.037 37.296 120.928 39.728C119.861 42.1173 118.41 43.8453 116.576 44.912C114.741 45.9787 112.693 46.512 110.432 46.512C107.36 46.512 105.184 46.2773 103.904 45.808C102.666 45.296 102.048 45.04 102.048 45.04V61.552H90.5275ZM104.992 37.744C106.613 37.744 107.914 37.168 108.896 36.016C109.92 34.864 110.432 33.1147 110.432 30.768C110.432 28.464 110.026 26.7787 109.216 25.712C108.405 24.6453 107.21 24.112 105.632 24.112L102.048 25.456V36.912C102.048 36.912 102.261 37.0613 102.688 37.36C103.157 37.616 103.925 37.744 104.992 37.744ZM142.748 46.64C139.462 46.64 136.54 46.1493 133.98 45.168C131.42 44.1867 129.414 42.544 127.964 40.24C126.513 37.936 125.788 34.8213 125.788 30.896C125.788 28.08 126.257 25.6693 127.196 23.664C128.177 21.6587 129.478 20.0373 131.1 18.8C132.721 17.52 134.534 16.6027 136.54 16.048C138.545 15.4507 140.614 15.152 142.748 15.152C146.417 15.152 149.233 15.5147 151.196 16.24C153.201 16.9653 154.524 17.5413 155.164 17.968L158.364 28.144L157.083 32.112H137.244C137.542 33.6907 138.332 35.0133 139.612 36.08C140.892 37.1467 143.004 37.68 145.948 37.68C148.252 37.68 150.236 37.424 151.9 36.912C153.564 36.4 154.865 35.952 155.804 35.568V44.144C154.524 44.8267 152.668 45.424 150.236 45.936C147.846 46.4053 145.35 46.64 142.748 46.64ZM137.308 28.016L146.14 26.736L145.564 23.984C145.265 23.8133 144.817 23.6853 144.22 23.6C143.665 23.5147 143.174 23.472 142.748 23.472C141.553 23.472 140.55 23.728 139.74 24.24C138.972 24.752 138.374 25.3707 137.948 26.096C137.564 26.7787 137.35 27.4187 137.308 28.016ZM132.06 11.44L139.036 2.48H145.5L152.412 11.44H147.228L142.3 7.728L137.18 11.44H132.06ZM163.715 46V26.736L162.435 19.696L164.419 15.792H173.955V18.544L174.531 18.928C175 18.5013 175.64 18.0107 176.451 17.456C177.304 16.8587 178.328 16.3253 179.523 15.856C180.718 15.3867 182.062 15.152 183.555 15.152C187.395 15.152 190.275 16.24 192.195 18.416C194.115 20.592 195.075 23.6427 195.075 27.568V35.696L196.419 42.096L195.075 46H183.555V29.232C183.555 27.6107 183.192 26.3733 182.467 25.52C181.784 24.624 180.696 24.176 179.203 24.176L175.235 25.392V46H163.715ZM212.51 46.64C210.505 46.64 208.563 46.128 206.686 45.104C204.851 44.08 203.337 42.4587 202.142 40.24C200.947 38.0213 200.35 35.12 200.35 31.536C200.35 27.568 200.926 24.3893 202.078 22C203.273 19.6107 204.809 17.8827 206.686 16.816C208.563 15.7067 210.505 15.152 212.51 15.152C215.539 15.152 217.673 15.408 218.91 15.92C220.19 16.432 220.83 16.688 220.83 16.688L220.19 4.592L220.83 0.751999H232.414V35.76L233.694 42.16L232.414 46.064H221.47V42.928L220.83 42.608C220.83 42.608 220.51 42.9493 219.87 43.632C219.23 44.272 218.291 44.9333 217.054 45.616C215.817 46.2987 214.302 46.64 212.51 46.64ZM217.31 37.616L220.83 36.72V27.376C220.83 26.3947 220.51 25.6267 219.87 25.072C219.23 24.4747 218.377 24.176 217.31 24.176C215.731 24.176 214.537 24.7093 213.726 25.776C212.915 26.8 212.51 28.5067 212.51 30.896C212.51 33.2427 212.979 34.9493 213.918 36.016C214.857 37.0827 215.987 37.616 217.31 37.616Z" fill="white"/>
</svg>
